PathFileType	4	(X/Y/Z)	/Users/niels/Desktop/University/Third Semester/Perception and Action/Exam/Gymnastics Motion Tracking/Code for Gym Tracking/Analyzed Data/Webcam_Backflip/temp_id5_2_trajectory_Sports2D/temp_id5_2_trajectory_Sports2D_px_person00.trc
DataRate	CameraRate	NumFrames	NumMarkers	Units	OrigDataRate	OrigDataStartFrame	OrigNumFrames
29.8125	29.8125	12	22	m	29.8125	120	160
Frame#	Time	Hip			RHip			RKnee			RAnkle			RBigToe			RSmallToe			RHeel			LHip			LKnee			LAnkle			LBigToe			LSmallToe			LHeel			Neck			Head			Nose			RShoulder			RElbow			RWrist			LShoulder			LElbow			LWrist		
		X1	Y1	Z1	X2	Y2	Z2	X3	Y3	Z3	X4	Y4	Z4	X5	Y5	Z5	X6	Y6	Z6	X7	Y7	Z7	X8	Y8	Z8	X9	Y9	Z9	X10	Y10	Z10	X11	Y11	Z11	X12	Y12	Z12	X13	Y13	Z13	X14	Y14	Z14	X15	Y15	Z15	X16	Y16	Z16	X17	Y17	Z17	X18	Y18	Z18	X19	Y19	Z19	X20	Y20	Z20	X21	Y21	Z21	X22	Y22	Z22
120	4.025157232704402	0.8585576030139798	-0.5587345714192595	0.0	0.8499151968001966	-0.5579876581459591	0.0	0.8587614880876765	-0.6629029315933447	0.0	0.8478593297366134	-0.7698107431856065	0.0	0.8860720034091721	-0.7872744871876589	0.0	0.870733798540826	-0.790645078636013	0.0	0.8387537910464382	-0.7854898433009352	0.0	0.866639754740989	-0.5579546288065872	0.0	0.8876955589782115	-0.6592881825199212	0.0	0.858740837263564	-0.7521949807441848	0.0	0.8949946442780344	-0.7767906866288223	0.0	0.8902361774223971	-0.7715879886752867	0.0	0.8500105999786514	-0.7670158010930712	0.0	0.8662224749471276	-0.4116334065838414	0.0	0.8868944912805882	-0.3473222244172663	0.0	0.9002508222275062	-0.38137840740337464	0.0	0.8560591574449943	-0.43221025352163994	0.0	0.8445014962292026	-0.5023099026991993	0.0	0.8548470865370243	-0.5698168472911804	0.0	0.8635510119546287	-0.43148220091592615	0.0	0.8545629721565802	-0.4977218150518116	0.0	0.8670533564796635	-0.5549502764804318	0.0
121	4.058700209643606	0.8598064756759846	-0.5599639856548886	0.0	0.8519994279232203	-0.5590970931445108	0.0	0.8601529646511259	-0.6632009200634813	0.0	0.8483420382920661	-0.770065487832146	0.0	0.8849806885251884	-0.7880578620540848	0.0	0.8697061703397688	-0.7913024959233566	0.0	0.8388010213591475	-0.7861984430678888	0.0	0.8683632448290354	-0.5591429779147689	0.0	0.8864471308904267	-0.6608049121011448	0.0	0.8674477234341872	-0.7564959888104266	0.0	0.9030234325616943	-0.7793570395469034	0.0	0.9000556043613078	-0.7746322718883134	0.0	0.8610859894149993	-0.7723657933066873	0.0	0.8667041812914272	-0.4121075889300527	0.0	0.8880011903364994	-0.3466917234862027	0.0	0.9007185134941902	-0.38183237907537754	0.0	0.8572569939776753	-0.4321893511973287	0.0	0.8462703878039569	-0.501782193840295	0.0	0.8584306365642377	-0.5687651542418163	0.0	0.86487573880315	-0.4320201409415025	0.0	0.8562668901450786	-0.4976325234055816	0.0	0.8694452975936976	-0.5548059055208033	0.0
122	4.092243186582809	0.8612345767819941	-0.5629381925229877	0.0	0.8542214654690289	-0.5618216831033792	0.0	0.861490079878109	-0.6657712978673763	0.0	0.84867960877862	-0.7723113288472072	0.0	0.8839437012070243	-0.7905906405424888	0.0	0.8688273744124859	-0.7936838850685304	0.0	0.8388876138547501	-0.7886290032676846	0.0	0.8700726628712867	-0.5619452510666642	0.0	0.8848258248436843	-0.6643130773550179	0.0	0.8728302455965797	-0.7613836511494662	0.0	0.9071493939637628	-0.7830454500285831	0.0	0.9056358327076252	-0.778739554510589	0.0	0.868041490944922	-0.7775796964509275	0.0	0.8671159468194587	-0.41438146615103044	0.0	0.8886203087550686	-0.34824215170562545	0.0	0.9012154710750081	-0.38417818070178106	0.0	0.8581569495671921	-0.4341925772206444	0.0	0.8478929951344875	-0.5034805662712382	0.0	0.8617702824807343	-0.5700002085978789	0.0	0.8662045240081081	-0.4343609730247742	0.0	0.8579250298633518	-0.4997495103800988	0.0	0.872251474280182	-0.5571032090113787	0.0
123	4.125786163522012	0.862770745765604	-0.567326518736401	0.0	0.8564226700683136	-0.5658893811875201	0.0	0.8627966131673364	-0.6701454733988613	0.0	0.8489189129003177	-0.7761512734462911	0.0	0.8834084582429118	-0.7944963477101491	0.0	0.8685095635694194	-0.7974792448390005	0.0	0.8390342711618055	-0.7924799553659744	0.0	0.8716152843390624	-0.5660960363306886	0.0	0.8831282922644358	-0.6693489889276493	0.0	0.8752438886548382	-0.7666867846449144	0.0	0.9083008967384588	-0.7875382934120635	0.0	0.9076797007722629	-0.7835730695873528	0.0	0.8712816867981428	-0.7827581643275464	0.0	0.8675317307476976	-0.4182076202876192	0.0	0.8888351546550574	-0.35176349161814097	0.0	0.901775223214539	-0.3881668525077669	0.0	0.8588149492156573	-0.4379515364825162	0.0	0.8493862602397563	-0.5071887363989624	0.0	0.8646949047301938	-0.5734288024488982	0.0	0.8674433196893264	-0.4382952650487349	0.0	0.8595040929877037	-0.5038267245060343	0.0	0.8753014447458419	-0.5616102023177915	0.0
124	4.159329140461216	0.8643129917160971	-0.5726919459791184	0.0	0.8584512678778106	-0.5709309175874796	0.0	0.8641127757563739	-0.6756791720483335	0.0	0.8491591869453003	-0.781084148578745	0.0	0.8836242497698349	-0.7993032849832508	0.0	0.8689476837523799	-0.8022343756782846	0.0	0.8392836341521288	-0.7973241652288534	0.0	0.8728882779254712	-0.5712104293009482	0.0	0.8815911737215618	-0.6752966308021727	0.0	0.8755326005093779	-0.7723207484006875	0.0	0.9078315395921325	-0.7925117736061129	0.0	0.9074708336156128	-0.788797289068865	0.0	0.8718992442163928	-0.7880645834870417	0.0	0.8679988480320892	-0.4232451726109078	0.0	0.8888049606723781	-0.35682495097858247	0.0	0.9023439024935975	-0.3934137813519668	0.0	0.8593118740554035	-0.44309645027330774	0.0	0.8507848109590642	-0.5125214187743822	0.0	0.867132460153193	-0.5786820819294117	0.0	0.8685286202258781	-0.44349681190471346	0.0	0.8609591231287373	-0.509433451056883	0.0	0.8782807870636529	-0.5677683453533516	0.0
125	4.192872117400419	0.8657901867189259	-0.5785244715000435	0.0	0.860212233372601	-0.5765023861486672	0.0	0.8654418653481027	-0.6817172639697711	0.0	0.8494716954394719	-0.7865873929595443	0.0	0.884582045850448	-0.8045298467528699	0.0	0.870088889132353	-0.807434143175773	0.0	0.839667594876815	-0.8026326453417203	0.0	0.8739249677733847	-0.5768076143936764	0.0	0.880421094664447	-0.6815132255003858	0.0	0.8746390186003562	-0.7781297439792673	0.0	0.9069707194269612	-0.7976246693402427	0.0	0.906303747217778	-0.7940596043587465	0.0	0.8710726584717878	-0.7935063129134037	0.0	0.8685411563565555	-0.4290551450378822	0.0	0.8887135831032894	-0.36282643057194075	0.0	0.9028461131898797	-0.3993954341510848	0.0	0.8597037033222994	-0.44917636177767284	0.0	0.8521154726787667	-0.5189687021198383	0.0	0.8690802787007275	-0.5851591499058042	0.0	0.8694888093073605	-0.449508076153273	0.0	0.8623188640213766	-0.5159875716879629	0.0	0.8808787193217099	-0.5748113694341438	0.0
126	4.226415094339622	0.8671900542506176	-0.5842724995206844	0.0	0.8617003559122667	-0.5820993169281616	0.0	0.8667203259880504	-0.6876599553392461	0.0	0.8498680210705625	-0.7921289931481491	0.0	0.8861066661959447	-0.8096848212712634	0.0	0.8716962674762326	-0.8125620911891869	0.0	0.8401445668169402	-0.80786507137565	0.0	0.874876378224594	-0.5823581516031636	0.0	0.8797479529633382	-0.6874183523492984	0.0	0.8733462157758128	-0.7838280268986315	0.0	0.9064599748037278	-0.8025342241673731	0.0	0.9051225391387618	-0.799029341485578	0.0	0.8697313229557773	-0.7988850947113957	0.0	0.8691627765388715	-0.4350962018756351	0.0	0.8886806825233096	-0.36909042003821996	0.0	0.9032593775836717	-0.4055164650105887	0.0	0.860010726946724	-0.45568077694558023	0.0	0.8533785761000877	-0.5259359627106428	0.0	0.8706128901337112	-0.5921479921482994	0.0	0.8704185531827954	-0.45576821456059075	0.0	0.8636899267533494	-0.5228142551910046	0.0	0.88296895668494	-0.5819612388534715	0.0
127	4.259958071278826	0.8685319360807464	-0.5894112539404538	0.0	0.8629641462691353	-0.5871974732187915	0.0	0.8678399278378988	-0.6929550256009651	0.0	0.8503151547902876	-0.7971811843435753	0.0	0.8879150195177541	-0.8142767000540795	0.0	0.8734346610835588	-0.8171161175857331	0.0	0.8405892034045285	-0.8125499603918677	0.0	0.8758976409112283	-0.5873509791221553	0.0	0.8795861725473482	-0.6925179345690561	0.0	0.8721820000618905	-0.789026390301823	0.0	0.9064907534182741	-0.806925661709231	0.0	0.9044051844570721	-0.803434139932492	0.0	0.8684693210328348	-0.8038438418716988	0.0	0.8698430009635183	-0.44075981551508503	0.0	0.8887358319548976	-0.3749738810454439	0.0	0.9036299358869289	-0.4111932563714798	0.0	0.8602325820083276	-0.4620512861295771	0.0	0.8545635398545218	-0.5327807236717772	0.0	0.8718597331297309	-0.5989343934608448	0.0	0.8713893410254362	-0.4616886268028525	0.0	0.8651767047635278	-0.5292326871227829	0.0	0.8846357310431354	-0.5885690787515726	0.0
128	4.293501048218029	0.8698108435183767	-0.5935001199767689	0.0	0.8640370790530973	-0.5913195269715992	0.0	0.8687308658574088	-0.6971039522630523	0.0	0.8507486406306849	-0.8012623992806286	0.0	0.8896577155765037	-0.8178591483633612	0.0	0.8749887095134891	-0.8206417226497255	0.0	0.8408659257776594	-0.8162899105032323	0.0	0.8770428977513095	-0.5913385699795777	0.0	0.8798498950134471	-0.6964125783715508	0.0	0.8714288116355862	-0.7932754664662917	0.0	0.906917551723611	-0.8105163380494254	0.0	0.904268407062226	-0.8070368031326487	0.0	0.8676069018671689	-0.8079202031732442	0.0	0.8705395102500403	-0.4454455286255787	0.0	0.8888689848213265	-0.3799303048677116	0.0	0.9040348019588048	-0.4159053112996467	0.0	0.8603812720237027	-0.4676886500711169	0.0	0.8556768599632625	-0.5388621740983758	0.0	0.8729460184866203	-0.6048526848766783	0.0	0.8724174365687544	-0.4667218210219931	0.0	0.8668070704887159	-0.5346371430780545	0.0	0.8860300237343393	-0.5941262509981988	0.0
129	4.327044025157232	0.8709935933950609	-0.5961888314320154	0.0	0.8649386599743181	-0.5940780231204947	0.0	0.8694143181302516	-0.6997379947631165	0.0	0.8510880824857695	-0.8039790451832192	0.0	0.8910320345740493	-0.8200920034657861	0.0	0.8761635402529158	-0.8228218176126115	0.0	0.840914325493981	-0.8187621395753466	0.0	0.878260594627983	-0.5939530359292238	0.0	0.8804045797974966	-0.698837369318505	0.0	0.8711588694285753	-0.7961338438634481	0.0	0.9075438528245408	-0.8130422294980919	0.0	0.9046286345871635	-0.8095789409255184	0.0	0.8672653634451511	-0.8106431593456568	0.0	0.871214758946552	-0.4486601272686487	0.0	0.889059807128785	-0.38350874088950615	0.0	0.90452439905975	-0.4192210502617631	0.0	0.8605109323757264	-0.4720028212886633	0.0	0.8567471364261807	-0.5435933208705123	0.0	0.8739686033470327	-0.6093241317050825	0.0	0.873478023943519	-0.47039264294938593	0.0	0.8685097066928104	-0.5385411181476147	0.0	0.8872421415469749	-0.5982021732949562	0.0
130	4.360587002096436	0.8720611932729969	-0.5972396234542237	0.0	0.8657320823830381	-0.5952152528993708	0.0	0.8699571976998053	-0.7007018133518501	0.0	0.8512733266565841	-0.8050566512654527	0.0	0.8918398530175758	-0.8208278524848949	0.0	0.8768416820258312	-0.823558093042275	0.0	0.8407730250342705	-0.8197368999259299	0.0	0.8794611485919649	-0.5949537201849477	0.0	0.8811278501991092	-0.6996916691415274	0.0	0.8712926568575341	-0.7972673055723816	0.0	0.9081702530048291	-0.8142563790541834	0.0	0.9052334361360378	-0.8107816794521051	0.0	0.867404407280442	-0.8116850117733682	0.0	0.871845716941216	-0.4501223073292283	0.0	0.8892865002460204	-0.38534388946235043	0.0	0.905062993412709	-0.42082326901438816	0.0	0.860700048958567	-0.4745084154169732	0.0	0.8577955754604873	-0.5464866409617808	0.0	0.8749787954144488	-0.6118981782869813	0.0	0.8744921710191172	-0.4723409748173464	0.0	0.8701110090733006	-0.5405773877840225	0.0	0.8882654822443204	-0.6003930078401862	0.0
131	4.394129979035639	0.8730140316383809	-0.5965738638137373	0.0	0.866516133163158	-0.5946473490558706	0.0	0.8704195802764073	-0.7000237890768349	0.0	0.8513007297403846	-0.8043699351001208	0.0	0.8920149584016899	-0.8201221739161808	0.0	0.8769600076592325	-0.8229110635996145	0.0	0.8405413302272632	-0.8190899620005107	0.0	0.8805667540674279	-0.5942821422347659	0.0	0.8819305740589257	-0.6989919261959392	0.0	0.8716758383752868	-0.796522169937818	0.0	0.9085451682132416	-0.8139630020195038	0.0	0.9057303547656739	-0.8104278732993764	0.0	0.8678596626662188	-0.8109310770399852	0.0	0.8724133924613925	-0.4497789794757444	0.0	0.889548910940806	-0.3852128384685883	0.0	0.9055524127574125	-0.42055685021171046	0.0	0.8610093518260987	-0.4749030682204	0.0	0.8587978800389204	-0.547214601598365	0.0	0.8759748457892572	-0.6122954547142927	0.0	0.8753421587234728	-0.4723741240335909	0.0	0.8714004261335827	-0.540522659132984	0.0	0.8890675574825572	-0.6003655466802362	0.0
